<?xml version="1.0" encoding="UTF-8" standalone="no"?><!-- Generator: Gravit.io --><svg xmlns="http://www.w3.org/2000/svg" xmlns:xlink="http://www.w3.org/1999/xlink" style="isolation:isolate" viewBox="739 359 70.058 69.993" width="70.058pt" height="69.993pt"><defs><clipPath id="_clipPath_HUt3YNX38neB9HIbWl6WZ0DXh3JYGplK"><rect x="739" y="359" width="70.058" height="69.993"/></clipPath></defs><g clip-path="url(#_clipPath_HUt3YNX38neB9HIbWl6WZ0DXh3JYGplK)"><path d=" M 739 380.828 C 739.002 391.276 746.385 400.268 756.633 402.305 C 756.916 399.168 757.721 396.1 759.015 393.228 C 755.179 391.932 752.714 388.99 752.136 384.813 L 749.946 384.813 L 749.946 382.947 L 751.987 382.947 L 751.987 381.047 C 751.987 380.846 751.987 380.64 752.004 380.456 L 749.946 380.456 L 749.946 378.586 L 752.184 378.586 C 753.169 373.122 757.447 369.882 763.875 369.882 C 765.258 369.882 766.458 370.017 767.461 370.254 L 767.461 373.463 C 766.29 373.203 765.092 373.082 763.892 373.104 C 759.868 373.104 757.158 375.145 756.3 378.586 L 764.694 378.586 L 764.694 380.456 L 756.024 380.456 C 756.011 380.657 756.011 380.881 756.011 381.1 L 756.011 382.947 L 764.694 382.947 L 764.694 384.817 L 756.208 384.817 C 756.725 387.453 758.257 389.327 760.608 390.198 C 765.284 382.455 773.362 377.395 782.37 376.568 C 780.146 365.552 769.945 358.007 758.76 359.106 C 747.576 360.205 739.038 369.59 739 380.828 Z  M 809.058 404.91 C 809.058 418.211 798.276 428.993 784.975 428.993 C 771.675 428.993 760.893 418.211 760.893 404.91 C 760.893 391.61 771.675 380.828 784.975 380.828 C 798.276 380.828 809.058 391.61 809.058 404.91 Z  M 775.123 410.699 C 775.426 414.355 778.39 417.201 783.723 417.538 L 783.723 420.235 L 786.087 420.235 L 786.087 417.521 C 791.6 417.144 794.827 414.281 794.827 410.121 C 794.827 406.333 792.362 404.385 787.953 403.378 L 786.087 402.94 L 786.087 395.601 C 788.452 395.864 789.958 397.121 790.317 398.863 L 794.468 398.863 C 794.162 395.343 791.057 392.589 786.087 392.287 L 786.087 389.585 L 783.723 389.585 L 783.723 392.339 C 779.012 392.79 775.806 395.544 775.806 399.441 C 775.806 402.887 778.188 405.081 782.155 405.979 L 783.723 406.351 L 783.723 414.145 C 781.297 413.794 779.695 412.498 779.331 410.699 L 775.123 410.699 Z  M 783.705 402.401 C 781.376 401.876 780.115 400.808 780.115 399.196 C 780.115 397.401 781.477 396.048 783.723 395.654 L 783.723 402.397 L 783.701 402.397 L 783.705 402.401 Z  M 786.429 406.973 C 789.253 407.608 790.558 408.636 790.558 410.458 C 790.558 412.533 788.938 413.961 786.092 414.224 L 786.092 406.894 L 786.429 406.973 Z " fill="rgb(238,162,45)"/></g></svg>